# AST/ASF file generated using VICON BodyLanguage
# -----------------------------------------------
:version 1.10
:name VICON
:units
  mass 1.0
  length 0.45
  angle deg
:documentation
   .ast/.asf automatically generated from VICON data using
   VICON BodyBuilder and BodyLanguage model FoxedUp or BRILLIANT.MOD
:root
   order TX TY TZ RX RY RZ
   axis XYZ
   position 0 0 0  
   orientation 0 0 0 
:bonedata
  begin
     id 1 
     name lhipjoint
     direction 0.700308 -0.549349 0.455834 
     length 2.59063 
     axis 0 0 0  XYZ
  end
  begin
     id 2 
     name lfemur
     direction 0.34202 -0.939693 0  
     length 6.31066  
     axis 0 0 20  XYZ
    dof rx ry rz
    limits (-160.0 20.0)
           (-70.0 70.0)
           (-60.0 70.0)
  end
  begin
     id 3 
     name ltibia
     direction 0.34202 -0.939693 0   
     length 7.36093   
     axis 0 0 20   XYZ
    dof rx
    limits (-10.0 170.0)
  end
  begin
     id 4 
     name lfoot
     direction 0.0905332 -0.248738 0.96433   
     length 2.0233   
     axis -90 7.62852e-016 20   XYZ
    dof rx rz
    limits (-45.0 90.0)
           (-70.0 20.0)
  end
  begin
     id 5 
     name ltoes
     direction 1.53573e-011 -4.21855e-011 1   
     length 1.01524   
     axis -90 7.62852e-016 20   XYZ
    dof rx
    limits (-90.0 20.0)
  end
  begin
     id 6 
     name rhipjoint
     direction -0.61416 -0.607328 0.503944   
     length 2.34332  
     axis 0 0 0  XYZ 
  end
  begin
     id 7 
     name rfemur
     direction -0.34202 -0.939693 0   
     length 6.58548   
     axis 0 0 -20   XYZ
    dof rx ry rz
    limits (-160.0 20.0)
           (-70.0 70.0)
           (-70.0 60.0)
  end
  begin
     id 8 
     name rtibia
     direction -0.34202 -0.939693 0   
     length 7.20707   
     axis 0 0 -20   XYZ
    dof rx
    limits (-10.0 170.0)
 end
 begin
     id 9 
     name rfoot
     direction -0.136772 -0.375778 0.916561   
     length 1.92184  
     axis -90 -7.62852e-016 -20   XYZ
    dof rx rz
    limits (-45.0 90.0)
           (-20.0 70.0)
  end
  begin
     id 10 
     name rtoes
     direction -1.53535e-011 -4.21828e-011 1   
     length 0.951089   
     axis -90 -7.62852e-016 -20   XYZ
    dof rx
    limits (-90.0 20.0)
  end
  begin
     id 11 
     name lowerback
     direction -0.0444974 0.988086 -0.147332   
     length 1.9609   
     axis 0 0 0   XYZ
    dof rx ry rz
    limits (-20.0 45.0)
           (-30.0 30.0)
           (-30.0 30.0)
  end
  begin
     id 12 
     name upperback
     direction 0.00613146 0.999513 0.0306081   
     length 1.94944   
     axis 0 0 0   XYZ
    dof rx ry rz
    limits (-20.0 45.0)
           (-30.0 30.0)
           (-30.0 30.0)
  end
  begin
     id 13 
     name thorax
     direction 0.0254621 0.994518 0.101418   
     length 2.0119   
     axis 0 0 0   XYZ
    dof rx ry rz
    limits (-20.0 45.0)
           (-30.0 30.0)
           (-30.0 30.0)
  end
  begin
     id 14 
     name lowerneck
     direction 0.0168698 0.977854 0.208608   
     length 1.6375   
     axis 0 0 0   XYZ
    dof rx ry rz
    limits (-20.0 45.0)
           (-30.0 30.0)
           (-30.0 30.0)
  end
  begin
     id 15 
     name upperneck
     direction -0.0283988 0.989338 -0.142843   
     length 1.6851   
     axis 0 0 0   XYZ
    dof rx ry rz
    limits (-20.0 45.0)
           (-30.0 30.0)
           (-30.0 30.0)
  end
  begin
     id 16
     name head
     direction -0.0129422 0.99741 -0.0707489  
     length 1.69029  
     axis 0 0 0   XYZ
    dof rx ry rz
    limits (-20.0 45.0)
           (-30.0 30.0)
           (-30.0 30.0)
  end
  begin
     id 17 
     name lclavicle
     direction 0.820295 0.564628 -0.0911715  
     length 3.16484  
     axis 0 0 0   XYZ
    dof ry rz
    limits (-20.0 10.0)
           (0.0 20.0)
  end
  begin
     id 18 
     name lhumerus
     direction 1 -4.48969e-011 1.00186e-027   
     length 5.17853   
     axis 180 -30 -90   XYZ
    dof rx ry rz
    limits (-60.0 90.0)
           (-90.0 90.0)
           (-90.0 90.0)
  end
  begin
     id 19
     name lradius
     direction 1 -4.48966e-011 -1.52922e-027   
     length 3.40399   
     axis 180 -30 -90   XYZ
    dof rx
    limits (-10.0 170.0)
  end
  begin
     id 20
     name lwrist
     direction 1 -4.48981e-011 -3.80893e-027   
     length 1.70199   
     axis 1.1049e-015 90 90   XYZ
    dof ry
    limits (-180.0 0.0)
 end
  begin
     id 21 
     name lhand
     direction 1 -4.48957e-011 -7.61786e-027   
     length 0.708964   
     axis 4.86085e-015 90 90   XYZ
    dof rx rz
    limits (-90.0 90.0)
           (-45.0 45.0)
  end
  begin
     id 22 
     name lfingers
     direction 1 -4.48929e-011 -1.52357e-026   
     length 0.571585   
     axis 9.7217e-015 90 90   XYZ
    dof rx
    limits (0.0 90.0)
  end
  begin
     id 23
     name lthumb
     direction 0.707107 -6.34905e-011 0.707107   
     length 0.820685   
     axis -90 45 2.85299e-015   XYZ
    dof rx rz
    limits (-45.0 45.0)
           (-45.0 45.0)
  end
  begin
     id 24 
     name rclavicle
     direction -0.858602 0.463947 -0.218075   
     length 3.35137  
     axis 0 0 0   XYZ 
    dof ry rz
    limits (-10.0 20.0)
           (-20.0 0.0)
  end
  begin
     id 25 
     name rhumerus
     direction -1 -4.48969e-011 -1.98511e-027  
     length 5.42351   
     axis 180 30 90   XYZ
    dof rx ry rz
    limits (-90.0 60.0)
           (-90.0 90.0)
           (-90.0 90.0)
  end
  begin
     id 26 
     name rradius
     direction -1 -4.48961e-011 -2.82624e-027   
     length 3.42066   
     axis 180 30 90   XYZ
    dof rx
    limits (-10.0 170.0)
  end
  begin
     id 27 
     name rwrist
     direction -1 -4.48966e-011 -3.80893e-027   
     length 1.71033   
     axis 1.1049e-015 -90 -90   XYZ
    dof ry
    limits (-180.0 0.0)
  end
  begin
     id 28
     name rhand
     direction -1 -4.48964e-011 -7.61786e-027   
     length 0.743608   
     axis 4.86085e-015 -90 -90   XYZ
    dof rx rz
    limits (-90.0 90.0)
           (-45.0 45.0)
  end
  begin
     id 29
     name rfingers
     direction -1 -4.48961e-011 -1.52357e-026   
     length 0.599516   
     axis 9.7217e-015 -90 -90   XYZ
    dof rx
    limits (0.0 90.0)
  end
  begin
     id 30
     name rthumb
     direction -0.707107 -6.34913e-011 0.707107   
     length 0.860789   
     axis -90 -45 -2.85299e-015   XYZ
    dof rx rz
    limits (-45.0 45.0)
           (-45.0 45.0)
  end
:hierarchy
  begin
    root lhipjoint rhipjoint lowerback
    lhipjoint lfemur
    lfemur ltibia
    ltibia lfoot
    lfoot ltoes
    rhipjoint rfemur
    rfemur rtibia
    rtibia rfoot
    rfoot rtoes
    lowerback upperback
    upperback thorax
    thorax lowerneck lclavicle rclavicle
    lowerneck upperneck
    upperneck head
    lclavicle lhumerus
    lhumerus lradius
    lradius lwrist
    lwrist lhand lthumb
    lhand lfingers
    rclavicle rhumerus
    rhumerus rradius
    rradius rwrist
    rwrist rhand rthumb
    rhand rfingers
  end

#!OML:ASF E:\mmandel\Project 1\Capture day 1\Session 2\Subject.ASF
:FULLY-SPECIFIED
:DEGREES
733
root 7.40153 14.919 -1.5104 218.566 89.2906 201.91
lowerback 27.6183 0.566021 -4.27744
upperback 3.81071 -0.291008 -0.917136
thorax -11.0301 0.166145 1.50749
lowerneck -16.2535 -0.301674 2.6702
upperneck -3.47267 -0.527832 -3.32808
head 1.65701 -0.268834 -1.57272
rclavicle 1.98785e-015 9.54166e-015
rhumerus -21.8587 9.06564 -78.4471
rradius 62.9463
rwrist -369.377
rhand -19.2123 36.0557
rfingers 7.12502
rthumb 7.10027 6.19484
lclavicle 1.98785e-015 9.54166e-015
lhumerus -18.1057 -17.7186 67.5646
lradius 40.3806
lwrist 31.0548
lhand -18.8312 -33.1324
lfingers 7.12502
lthumb 7.46809 -3.28422
rfemur -52.1835 -9.96454 11.1117
rtibia 59.588
rfoot -24.0308 -6.84987
rtoes -16.7157
lfemur -50.3783 15.9027 -13.0641
ltibia 57.2981
lfoot -20.776 -3.32772
ltoes -4.16668
734
root 7.39879 14.9058 -1.44539 195.155 89.0575 178.29
lowerback 27.6047 0.454551 -3.99974
upperback 3.80314 -0.349234 -0.888107
thorax -11.0312 0.1286 1.4014
lowerneck -16.2973 -0.320621 2.57746
upperneck -3.43269 -0.534621 -3.37917
head 1.67801 -0.273158 -1.5743
rclavicle -1.39149e-014 -2.42517e-014
rhumerus -21.5232 8.87704 -78.2824
rradius 63.2766
rwrist -369.059
rhand -19.6529 36.2645
rfingers 7.12502
rthumb 6.67489 6.38968
lclavicle -1.39149e-014 -2.42517e-014
lhumerus -18.1483 -17.2092 67.7119
lradius 40.7338
lwrist 31.1135
lhand -18.964 -33.5977
lfingers 7.12502
lthumb 7.33989 -3.745
rfemur -52.6992 -10.2741 11.1686
rtibia 60.2466
rfoot -24.5643 -6.80427
rtoes -16.2299
lfemur -50.7935 15.9534 -13.2229
ltibia 57.4187
lfoot -20.6196 -3.58953
ltoes -4.68681
735
root 7.39765 14.8677 -1.37728 186.498 88.8307 169.49
lowerback 27.7019 0.385348 -3.78093
upperback 3.79539 -0.367911 -0.801435
thorax -11.091 0.114342 1.38029
lowerneck -16.1656 -0.322207 2.37928
upperneck -3.41929 -0.502797 -3.32734
head 1.65965 -0.254171 -1.5185
rclavicle -1.07344e-014 -2.74323e-014
rhumerus -21.1216 8.84764 -78.0826
rradius 63.6043
rwrist -368.87
rhand -19.8919 36.368
rfingers 7.12502
rthumb 6.44417 6.48601
lclavicle -1.07344e-014 -2.74323e-014
lhumerus -18.2639 -16.6336 67.8933
lradius 41.1048
lwrist 31.1415
lhand -19.3579 -33.9142
lfingers 7.12502
lthumb 6.95971 -4.04864
rfemur -53.231 -10.3669 11.2608
rtibia 61.0022
rfoot -25.0927 -6.75871
rtoes -15.7064
lfemur -51.1921 16.007 -13.1737
ltibia 57.6111
lfoot -20.531 -3.62601
ltoes -6.15062
736
root 7.39359 14.8364 -1.30973 178.562 88.7196 161.386
lowerback 27.7201 0.36714 -3.68349
upperback 3.79692 -0.350217 -0.690037
thorax -11.0996 0.120935 1.44407
lowerneck -15.6669 -0.261373 2.00606
upperneck -3.60205 -0.358614 -3.26006
head 1.51387 -0.173485 -1.41435
rclavicle -1.59028e-015 -1.43125e-014
rhumerus -20.6523 8.9018 -77.8092
rradius 63.94
rwrist -368.913
rhand -19.8197 36.4389
rfingers 7.12502
rthumb 6.51389 6.5591
lclavicle -1.59028e-015 -1.43125e-014
lhumerus -18.4739 -15.8007 68.1366
lradius 41.6059
lwrist 31.0359
lhand -19.6475 -34.0007
lfingers 7.12502
lthumb 6.68011 -4.12606
rfemur -53.8177 -10.3858 11.3316
rtibia 61.7338
rfoot -25.478 -6.73584
rtoes -15.3508
lfemur -51.5293 16.2113 -13.2047
ltibia 57.7338
lfoot -20.437 -3.8372
ltoes -7.22338
737
root 7.38632 14.8035 -1.24354 171.221 88.4264 153.852
lowerback 27.763 0.295478 -3.47319
upperback 3.75762 -0.377023 -0.621365
thorax -11.1674 0.102213 1.41049
lowerneck -15.1591 -0.279464 1.7889
upperneck -3.95505 -0.342873 -3.41466
head 1.3087 -0.160036 -1.41746
rclavicle 1.03368e-014 2.08724e-014
rhumerus -20.3768 8.76689 -77.5304
rradius 64.4052
rwrist -368.967
rhand -19.7264 36.5689
rfingers 7.12502
rthumb 6.60399 6.69185
lclavicle 1.03368e-014 2.08724e-014
lhumerus -18.724 -15.1239 68.4004
lradius 42.1633
lwrist 31.0356
lhand -19.7386 -34.2466
lfingers 7.12502
lthumb 6.59219 -4.36921
rfemur -54.4451 -10.6286 11.3396
rtibia 62.539
rfoot -25.801 -6.63321
rtoes -15.1519
lfemur -51.9088 16.2849 -13.3236
ltibia 57.8838
lfoot -20.3348 -4.23379
ltoes -7.88897
738
root 7.37579 14.7697 -1.17697 165.983 87.9177 148.345
lowerback 27.8021 0.14225 -3.22494
upperback 3.72371 -0.502786 -0.614677
thorax -11.2237 0.0353699 1.32063
lowerneck -14.9534 -0.410527 1.9971
upperneck -4.37525 -0.541635 -3.85503
head 1.13129 -0.262781 -1.60305
rclavicle 7.95139e-016 -7.55382e-015
rhumerus -20.0786 8.53012 -77.3761
rradius 64.9367
rwrist -368.907
rhand -19.864 36.819
rfingers 7.12502
rthumb 6.47106 6.93783
lclavicle 7.95139e-016 -7.55382e-015
lhumerus -18.8399 -14.7372 68.5394
lradius 42.6834
lwrist 31.409
lhand -19.9767 -34.8542
lfingers 7.12502
lthumb 6.36227 -4.9698
rfemur -55.1272 -11.0316 11.2738
rtibia 63.3322
rfoot -26.0778 -6.62588
rtoes -15.4306
lfemur -52.4594 16.2086 -13.5658
ltibia 58.0087
lfoot -20.184 -4.48218
ltoes -8.94406
739
root 7.37223 14.7423 -1.11194 160.987 87.5641 143.206
lowerback 27.867 0.0407362 -3.06141
upperback 3.76211 -0.585671 -0.649425
thorax -11.2118 -0.00884129 1.21695
lowerneck -15.0192 -0.466482 2.24024
upperneck -4.47473 -0.6494 -4.17312
head 1.10836 -0.324586 -1.75625
rclavicle -3.37934e-015 6.55989e-015
rhumerus -19.62 8.25993 -77.3538
rradius 65.399
rwrist -368.825
rhand -19.9519 37.0692
rfingers 7.12502
rthumb 6.38626 7.18552
lclavicle -3.37934e-015 6.55989e-015
lhumerus -18.8646 -14.3977 68.5764
lradius 43.2133
lwrist 31.9028
lhand -20.6044 -35.5581
lfingers 7.12502
lthumb 5.7563 -5.65628
rfemur -55.6618 -11.2588 11.2078
rtibia 64.0541
rfoot -26.449 -6.63243
rtoes -15.6709
lfemur -52.781 16.2717 -13.7611
ltibia 58.1059
lfoot -20.0573 -4.77468
ltoes -8.74645
740
root 7.37555 14.7164 -1.04895 155.235 87.4322 137.387
lowerback 27.9279 0.0543532 -2.92407
upperback 3.77675 -0.531667 -0.685208
thorax -11.231 0.0102845 1.0775
lowerneck -14.9779 -0.39654 2.18039
upperneck -4.34919 -0.545172 -4.30535
head 1.14712 -0.276925 -1.78418
rclavicle -1.51076e-014 -2.62396e-014
rhumerus -19.1343 7.89929 -77.3288
rradius 65.6055
rwrist -368.711
rhand -20.1098 37.6025
rfingers 7.12502
rthumb 6.2338 7.71427
lclavicle -1.51076e-014 -2.62396e-014
lhumerus -18.9335 -13.9849 68.6975
lradius 43.7683
lwrist 32.1079
lhand -21.2672 -35.7601
lfingers 7.12502
lthumb 5.1164 -5.84183
rfemur -56.1143 -11.2453 11.1597
rtibia 64.7002
rfoot -26.8375 -6.50408
rtoes -15.2526
lfemur -52.8941 16.4771 -13.8501
ltibia 58.1817
lfoot -19.9398 -5.05607
ltoes -8.27083
741
root 7.37733 14.6909 -0.987151 151.703 87.2513 133.758
lowerback 27.9301 0.0207495 -2.73136
upperback 3.79043 -0.514155 -0.665968
thorax -11.2193 0.0106627 0.981686
lowerneck -15.0299 -0.388704 2.20232
upperneck -4.31292 -0.530777 -4.67598
head 1.17098 -0.278406 -1.9106
rclavicle 3.18055e-015 1.59028e-014
rhumerus -18.589 7.67294 -77.2626
rradius 65.7734
rwrist -368.632
rhand -20.3926 38.2447
rfingers 7.12502
rthumb 5.96079 8.34856
lclavicle 3.18055e-015 1.59028e-014
lhumerus -19.1656 -13.3813 68.8964
lradius 44.4879
lwrist 32.0848
lhand -21.7771 -35.7728
lfingers 7.12502
lthumb 4.62399 -5.84324
rfemur -56.5347 -11.2441 11.1329
rtibia 65.2709
rfoot -27.1279 -6.40284
rtoes -14.7887
lfemur -53.07 16.664 -13.9153
ltibia 58.2348
lfoot -19.7486 -5.38233
ltoes -8.23977
